<?xml version="1.0" encoding="UTF-8"?>
<svg width="179px" height="250px" viewBox="0 0 179 250" version="1.1" xmlns="http://www.w3.org/2000/svg" xmlns:xlink="http://www.w3.org/1999/xlink">
    <title>idea 1</title>
    <defs>
        <polygon id="path-1" points="0.150557216 0.169232792 23.1525683 0.169232792 23.1525683 42.7430058 0.150557216 42.7430058"></polygon>
        <path d="M8.43347074,12.0062846 L0.856027842,11.9862144 C0.856027842,11.9862144 -0.983443709,11.7316867 1.93830247,11.4835451 C4.93455197,11.2290174 4.93455197,11.2290174 4.93455197,11.2290174 C4.93455197,11.2290174 4.36954318,10.3672118 5.33534937,9.43363968 C6.44073523,8.667624 6.97928774,9.87214488 7.58230842,8.44441816 C8.08345722,7.2575348 9.4637451,3.8857278 13.0222665,3.7102649 C16.6866131,3.52932829 18.5373361,5.43539668 18.5373361,5.43539668 C18.5373361,5.43539668 18.076632,4.39843222 17.44381,4.04507366 C17.44381,4.04507366 18.7517232,3.5664279 19.9012029,2.44157994 C21.0613259,1.30578457 23.3608934,-0.407487498 27.1915799,0.223205839 C31.1378227,0.872753075 35.5268279,5.10849439 35.0390593,9.30227058 C35.0390593,9.30227058 35.5739627,9.22594269 35.5794364,7.708812 C35.5794364,7.708812 37.7223949,8.26226517 37.7263507,10.2644276 C37.7299973,12.266286 33.8178132,12.1814434 33.1484998,12.215198 C32.4822273,12.2489526 8.43347074,12.0062846 8.43347074,12.0062846" id="path-3"></path>
        <linearGradient x1="49.9996333%" y1="100.001022%" x2="49.9996333%" y2="-1.81035222e-05%" id="linearGradient-5">
            <stop stop-color="#D9EFF3" offset="0%"></stop>
            <stop stop-color="#86CAE0" offset="100%"></stop>
        </linearGradient>
        <path d="M61.1225166,10.4529666 L52.715198,10.4529666 C52.4746587,6.96043384 49.5434856,4.10133126 45.233241,4.10133126 C41.9976686,4.10133126 39.1458643,5.75135153 37.5286863,8.09896608 C35.8710637,3.85927152 33.2996351,0.215299365 28.2255034,0.215299365 C23.065617,0.215299365 18.7651034,3.84680362 18.6474186,8.10413569 C17.6396472,7.58930261 16.0997094,7.08085552 14.0245641,7.18333559 C10.125152,7.37552372 8.61258278,11.0702798 8.06308285,12.3711988 C7.40258819,13.9357683 6.8126436,12.6156913 5.60112853,13.4549939 C4.54287742,14.47797 5.16171104,15.4221854 5.16171104,15.4221854 C5.16171104,15.4221854 5.16171104,15.4221854 1.87869982,15.7010407 C-1.32281389,15.9729017 0.692728747,16.251757 0.692728747,16.251757 L8.99604676,16.2739559 C8.99604676,16.2739559 24.6371807,16.4317813 32.1525882,16.4874307 C32.8021354,16.9216786 33.5632856,17.1862414 34.261488,17.1862414 L53.2285106,17.1862414 C54.5169618,17.1862414 56.2077308,16.2897689 57.0701446,15.075517 C57.2474321,14.8252467 57.3784971,14.5789296 57.4642519,14.3426477 L59.3663671,14.3426477 C60.4787471,14.3426477 61.7960873,13.5237194 62.3148736,12.480369 C62.8588999,11.3868428 62.3328152,10.4529666 61.1225166,10.4529666" id="path-6"></path>
        <linearGradient x1="5.64214221e-06%" y1="50%" x2="100.00027%" y2="50%" id="linearGradient-8">
            <stop stop-color="#D9EFF3" offset="0%"></stop>
            <stop stop-color="#86CAE0" offset="100%"></stop>
        </linearGradient>
    </defs>
    <g id="Page-1" stroke="none" stroke-width="1" fill="none" fill-rule="evenodd">
        <g id="idea-1">
            <path d="M80.1053521,0.0294972294 L80.1053521,0 C80.2382417,0.00334504663 80.3702189,0.0106433302 80.5028044,0.0145965671 C80.6353899,0.0106433302 80.7673672,0.00334504663 80.9002568,0 L80.9002568,0.0294972294 C110.65323,1.18962022 135.243276,26.8020341 134.681916,49.148466 C133.789701,84.6515745 106.342073,110.659312 105.619847,115.272131 C105.506724,115.992837 103.101635,116.720537 103.097378,117.449453 L80.9002568,117.604237 L80.9002568,117.609407 L80.5028044,117.60667 L80.1053521,117.609407 L80.1053521,117.604237 L57.9079267,117.449453 C57.9039735,116.720537 55.4985809,115.992837 55.3857616,115.272131 C54.6632315,110.659312 27.2156035,84.6515745 26.3236924,49.148466 C25.7620287,26.8020341 50.3520746,1.18962022 80.1053521,0.0294972294" id="Fill-3" fill="#F9CE3D"></path>
            <path d="M67.4473915,112.283788 L59.3158873,112.226923 C59.311934,111.574334 57.1580281,110.922354 57.0567644,110.277064 C56.40965,106.145628 31.8272064,82.8528517 31.0280443,51.0554467 C30.5758548,33.0593999 48.3383565,12.7014461 71.2972361,8.02385457 C70.9411407,8.2476686 70.5899108,8.4799973 70.2456751,8.72296932 C67.6134275,10.5797743 65.1916137,12.6868496 63.1499189,15.1837748 C59.0008447,20.2579065 56.1016016,25.9648601 53.9437424,32.1416408 C52.0686917,37.5092242 50.8763346,43.1000135 50.0759562,48.7221246 C48.9559738,56.5896743 49.5374037,64.5177389 51.0846398,72.2934518 C53.8999527,86.4402622 60.197155,99.8669753 67.4473915,112.283788" id="Fill-4" fill="#EFBE34"></path>
            <path d="M54.3530545,71.306359 C54.5713948,70.1976281 55.6637046,69.1813421 57.135221,68.7185093 C59.0364238,68.1194418 61.0966685,68.5466955 62.6539397,69.8546087 C64.3298081,71.2580078 65.4373226,73.3203811 66.1981687,75.6734694 C62.6718813,76.6608663 58.985944,76.7846331 56.2062103,74.678166 C54.7739222,73.5919381 54.1325855,72.4266455 54.3530545,71.306359 Z M77.017874,64.3629545 C75.7446277,62.2321598 75.6652588,59.8018313 76.8159549,58.1700568 C77.669854,56.9582376 79.255102,56.230842 80.8190634,56.2210002 C81.3262941,56.2177659 81.8307879,56.2901406 82.3079132,56.4455332 C84.2565549,57.081092 85.6204217,59.0692661 85.4112042,60.9719895 C85.2609812,62.335248 84.3870118,63.6300851 83.7426341,64.4848966 C82.7762198,65.7687863 81.6562373,66.9514124 80.4167455,68.0038857 C79.1063995,66.9672253 77.8638667,65.7776051 77.017874,64.3629545 Z M94.9974997,75.4651642 C95.3289634,74.138093 95.7714218,72.8681916 96.4571564,71.6989458 C97.6780984,69.6174145 99.6036289,68.2018516 101.607312,67.9135694 C101.822307,67.8810312 102.038215,67.8661306 102.25321,67.8649142 C104.17053,67.8527504 106.018212,68.9824638 106.396506,70.4992904 C106.723104,71.8075078 106.028247,73.3562644 104.668029,74.352176 C103.443134,75.2492567 101.746587,75.7549669 99.6261319,75.8541019 C98.0469658,75.927997 96.5012502,75.7759495 94.9974997,75.4651642 Z M54.6452899,76.4400933 C58.1879984,79.1228207 62.629308,79.0519665 66.8048385,77.9033991 C67.4674618,80.8075078 67.7536154,83.9582376 68.0102717,86.7832815 C68.1629274,88.4673605 68.3073726,90.0583863 68.5156778,91.4578321 L72.3171712,116.981146 L74.7557102,116.669144 L70.9545209,91.1461346 C70.7544263,89.8059873 70.6133261,88.2444587 70.4634072,86.5913975 C70.1912421,83.5975808 69.8889715,80.2631775 69.1466752,77.1446817 C72.8377821,75.7753413 76.1217056,73.7762198 78.1095756,72.4339438 L78.1071429,72.4312069 C78.9142114,71.9802338 79.7009055,71.4912488 80.4520205,70.951784 C80.6332613,71.0813286 80.8135897,71.2060076 80.9914853,71.3294702 C83.8749155,73.3301122 87.7393567,75.7379376 92.1453913,77.0914651 C92.0891337,77.4004257 92.0347006,77.7072577 91.9823963,78.0113529 C91.4481011,81.1274159 91.0159819,84.3021692 90.5987633,87.3714015 L86.6215029,116.594337 L89.0642992,116.875625 L93.0415597,87.6526896 C93.4563455,84.6010947 93.886336,81.4470199 94.4139411,78.3668401 C94.451953,78.1442425 94.4905731,77.9231653 94.5304095,77.701784 C96.2135762,78.0457156 97.9630355,78.2169212 99.74777,78.126909 C102.391573,78.0037505 104.56038,77.3335248 106.195803,76.1359981 C108.286154,74.6051831 109.33072,72.1334978 108.795817,69.9862819 C108.086971,67.1505947 104.627281,65.1730639 101.228713,65.6629612 C98.4711785,66.0625422 95.8784633,67.912353 94.2932153,70.6157589 C93.5089539,71.9531693 93.0020273,73.3878903 92.6301189,74.8384241 C88.6638059,73.5666982 85.1271793,71.3507569 82.4696919,69.5088525 C82.435025,69.4839167 82.4003582,69.4601973 82.3650831,69.4352615 C83.624037,68.3320043 84.7671307,67.1065009 85.76213,65.7855116 C86.5628125,64.7220908 87.6514732,63.0906204 87.8597783,61.1997567 C88.1842479,58.2509461 86.1501554,55.2832815 83.1277538,54.2974051 C80.1038316,53.3145695 76.5054737,54.4427625 74.7544939,56.9278281 C73.1123801,59.2562846 73.1552575,62.6074132 74.8633599,65.4659076 C75.8109204,67.0502433 77.1148804,68.3523787 78.4875659,69.4732734 C77.8611299,69.8980943 77.212799,70.2918976 76.5471347,70.6519462 L76.5550412,70.6647182 C75.0439924,71.6788755 71.9923976,73.5761252 68.5178065,74.9031964 C67.6414042,72.2435802 66.3353156,69.8655562 64.3085214,68.1662725 C62.0752467,66.2963914 59.1011961,65.6970199 56.3448777,66.5624747 C54.0042573,67.2989931 52.3131842,68.9608731 51.9312407,70.9003919 C51.7086431,72.0328423 51.7652048,74.2569942 54.6452899,76.4400933 L54.6452899,76.4400933 Z" id="Fill-5" fill="#EA883B"></path>
            <path d="M55.4481011,115.581092 L105.557204,115.265137 C105.39877,116.174686 105.271658,117.078457 105.166137,117.971888 C104.268144,125.575179 104.675024,134.366266 101.132011,140.187863 C97.7237127,145.788079 91.4420192,155.515171 84.6895864,155.55744 L76.8536627,155.607117 C70.2225639,155.648061 60.7931815,144.162083 58.7195567,137.574165 C58.4267131,136.643938 58.2904784,135.680869 58.1539397,134.712934 C57.3946141,129.327105 57.3252804,122.182085 55.4481011,115.581092" id="Fill-6" fill="#6FB4D8"></path>
            <path d="M93.3854913,150.788012 C93.1148466,150.686748 92.8438978,150.586397 92.5702122,150.491215 C92.8016286,150.5718 92.978612,150.633836 93.1124138,150.68097 C93.2258413,150.724152 93.3268009,150.760643 93.3903568,150.782842 L93.3854913,150.788012" id="Fill-7" fill="#57A7D1"></path>
            <path d="M70.8106839,115.484086 C70.7814907,115.59356 70.7550345,115.704251 70.7346601,115.816462 C70.1593121,118.998513 70.0677794,122.1535 70.2219557,125.37326 C70.3581903,128.219895 70.4460738,131.090553 70.692695,133.928977 C71.194756,139.70344 72.5926814,145.511657 75.7580078,150.445297 C76.9482362,152.299973 78.3321733,154.034836 79.8933978,155.58785 C78.2677051,155.598189 76.8539668,155.607117 76.8536627,155.607117 C70.2225639,155.648061 60.7931815,144.162083 58.7195567,137.574165 C58.4267131,136.643938 58.2904784,135.680869 58.1539397,134.712934 C57.3946141,129.327105 57.3252804,122.182085 55.4481011,115.581092 L70.8106839,115.484086" id="Fill-8" fill="#57A7D1"></path>
            <path d="M43.7124611,101.004899 L117.168469,101.004899 C118.400358,101.004899 119.408434,99.9968239 119.408434,98.7649345 L119.408434,98.5617989 C119.408434,97.3299094 118.400358,96.321834 117.168469,96.321834 L43.7124611,96.321834 C42.4802676,96.321834 41.4721922,97.3299094 41.4721922,98.5617989 L41.4721922,98.7649345 C41.4721922,99.9968239 42.4802676,101.004899 43.7124611,101.004899" id="Fill-9" fill="#89A8CA"></path>
            <path d="M60.769158,245.743851 L69.2689215,247.84454 C77.0011488,249.755474 85.0417286,249.653602 92.7307744,247.547135 L99.3141303,245.743851 L108.124375,203.057102 L51.9589134,203.057102 L60.769158,245.743851" id="Fill-10" fill="#6FB4D8"></path>
            <path d="M63.5598392,222.427051 C70.4515475,232.300412 78.6581633,241.727362 88.318962,248.529058 C82.000473,249.618935 75.5335856,249.392688 69.2689215,247.84454 L60.769158,245.743851 L51.9589134,203.057102 L52.5144952,203.057102 C54.8186241,210.174449 59.4822273,216.585687 63.5598392,222.427051" id="Fill-11" fill="#57A7D1"></path>
            <path d="M59.394952,245.113765 L100.013245,245.113765 C101.131403,245.113765 102.045817,244.199047 102.045817,243.081497 L102.045817,242.372652 C102.045817,241.254798 101.131403,240.34008 100.013245,240.34008 L59.394952,240.34008 C58.2770983,240.34008 57.3623801,241.254798 57.3623801,242.372652 L57.3623801,243.081497 C57.3623801,244.199047 58.2770983,245.113765 59.394952,245.113765" id="Fill-12" fill="#4D4C6C"></path>
            <path d="M66.2702392,210.045513 C73.5983241,210.045513 79.0744695,206.358663 80.344675,205.423267 C85.1782673,208.863495 89.8166306,210.022402 93.8668739,210.022706 C102.143432,210.023618 107.97476,205.189722 108.061427,205.116435 C108.225639,204.976855 108.228375,204.74848 108.067509,204.606163 C107.906339,204.463238 107.642688,204.461718 107.478781,204.600689 C107.447459,204.627146 104.288519,207.271253 99.4132653,208.586464 C92.9062373,210.342614 86.5783214,209.025578 80.6049804,204.672456 C80.4428977,204.554163 80.204183,204.560245 80.0506149,204.686444 C80.018685,204.7129 76.781288,207.336025 71.8275781,208.630254 C65.2159413,210.357819 58.8342006,209.026186 52.859035,204.672456 C52.6829639,204.543823 52.4202257,204.563894 52.2724355,204.71655 C52.1243411,204.868597 52.1471483,205.096668 52.3232194,205.224693 C57.2839235,208.839776 62.0798081,210.045513 66.2702392,210.045513" id="Fill-13" fill="#3F3E5B"></path>
            <polyline id="Fill-14" fill="#89A8CA" points="107.903906 202.331227 118.156474 98.4176578 117.335113 98.3087917 107.082241 202.222057 107.903906 202.331227"></polyline>
            <polyline id="Fill-15" fill="#89A8CA" points="94.3287944 202.306595 99.8712326 98.8734964 99.0425733 98.8135897 93.5004392 202.246689 94.3287944 202.306595"></polyline>
            <polyline id="Fill-16" fill="#89A8CA" points="52.7693269 202.331227 53.590992 202.222057 43.3378159 98.3087917 42.5161508 98.4176578 52.7693269 202.331227"></polyline>
            <polyline id="Fill-17" fill="#89A8CA" points="66.3441343 202.306595 67.1724895 202.246689 61.6303555 98.8135897 60.8016962 98.8734964 66.3441343 202.306595"></polyline>
            <polygon id="Fill-18" fill="#89A8CA" points="80.197797 202.036559 81.0291931 202.036559 81.0291931 98.6633667 80.197797 98.6633667"></polygon>
            <path d="M118.478815,159.161879 C117.779092,159.198675 117.521219,159.520104 116.788654,159.703778 C116.984795,160.538823 116.822104,162.596026 116.697425,163.999426 C116.612583,164.953372 116.508278,165.90671 116.357143,166.85275 C116.148838,168.15671 115.838661,170.268955 115.003007,171.341195 C114.095283,172.504967 112.03443,172.847682 110.666002,173.242702 C109.033924,173.713441 107.382687,174.120929 105.728105,174.50865 C104.29825,174.843154 102.863529,175.158805 101.426071,175.460468 C101.041087,175.541053 99.9536424,175.558386 99.6495472,175.823861 C99.648939,175.824165 97.5567644,177.648736 98.731484,179.418874 C99.9068117,181.189012 103.689147,180.374037 103.689147,180.374037 C105.522841,180.110082 107.346195,179.716583 109.139445,179.262265 C113.697527,178.108224 118.338323,176.870557 119.337883,171.748682 C119.750845,169.63218 119.808319,167.463373 119.651406,165.315245 C119.623125,164.922658 118.533248,159.158839 118.478815,159.161879" id="Fill-19" fill="#F3BCA9"></path>
            <path d="M108.622787,160.700297 C108.547067,160.297371 108.477429,160.044364 108.422996,160.047378 C107.722969,160.084201 106.95665,160.207055 106.224084,160.391033 C106.729186,161.746689 106.453068,163.236147 106.328389,164.639546 C106.243546,165.593796 106.139242,166.547135 105.988107,167.492871 C105.779801,168.796831 105.469624,170.90938 104.633971,171.981315 C103.726551,173.145087 101.665394,173.487802 100.296966,173.882822 C98.6648871,174.353865 97.0136505,174.761657 95.3590688,175.14877 C93.9292134,175.483579 92.4947966,175.799534 91.0570347,176.100892 C90.6720503,176.181781 89.584606,176.198811 89.2802068,176.463982 C89.2799027,176.464286 87.1877281,178.288857 88.3627517,180.059299 C89.5377754,181.829436 93.3201108,181.014157 93.3201108,181.014157 C95.1538046,180.750507 96.9771591,180.357008 98.7704082,179.90269 C103.32849,178.748344 107.969286,177.511285 108.968847,172.389107 C109.381808,170.272604 109.438978,168.103494 109.282673,165.95567 C109.253784,165.563083 108.896777,162.154784 108.622787,160.700297" id="Fill-20" fill="#F3BCA9"></path>
            <g id="Group-26" transform="translate(81.001520, 157.847885)">
                <mask id="mask-2" fill="white">
                    <use xlink:href="#path-1"></use>
                </mask>
                <g id="Clip-22"></g>
                <path d="M12.9103595,9.05838627 C12.9176578,8.9498243 12.9264766,8.84035005 12.9371199,8.73178808 C12.8203473,8.57669955 12.7096567,8.4170496 12.6111299,8.24949317 C11.7420259,6.77219895 11.6553588,4.86035275 12.4444857,3.34595891 C13.3616367,1.58646439 17.0585214,-0.949689147 18.8697121,0.707933505 C20.7669618,2.44492499 20.981957,6.64113394 20.2259765,9.0185498 C20.0921746,9.43941749 19.9042438,9.85146641 19.6050142,10.1786728 C19.2705095,10.5444993 18.8259224,10.7710501 18.3411948,10.8917759 C18.348493,11.9293486 18.2308082,13.0496351 18.2584809,13.9926341 C18.2913232,15.1241722 18.3305514,16.4624949 17.8327477,17.143364 C17.4231315,17.7035072 16.8383565,17.5319976 16.3274767,17.3340316 C15.1679619,16.8857954 13.9214759,16.347547 13.1390391,14.7355386 C12.9593188,14.3651507 12.8084876,13.9394175 12.7391539,13.4677659 C12.6573523,12.9079267 12.694452,12.3213272 12.7321598,11.7508447 C12.7917624,10.8534599 12.851061,9.95577105 12.9103595,9.05838627" id="Fill-21" fill="#F3BCA9" mask="url(#mask-2)"></path>
                <path d="M23.136167,27.3053115 C23.3186241,22.4957427 21.9815178,17.6524192 18.9867888,15.2564536 C18.9867888,15.2564536 18.9058994,15.2181376 18.7620624,15.1542776 C18.9700635,14.7504392 18.9931748,14.3846128 18.1006555,13.9902014 C16.4269158,13.2503379 13.4209353,12.713914 12.4609069,12.6473172 C11.9317813,12.6108258 11.905325,12.9748277 11.9092783,13.4370523 C11.396878,13.5547371 10.8674483,13.7867617 10.4152588,13.9406339 C8.96411677,14.4347885 7.11643465,15.2296932 6.65785917,16.2882484 C5.01635356,20.0794026 5.21310312,25.3423773 2.88251791,35.9844911 C1.18293013,40.3421746 -0.0237194215,43.6972564 0.171205568,43.9493513 C0.689383701,44.6198811 14.8720773,48.7944993 18.2943641,48.5609542 C18.3947155,48.5767671 18.4956751,48.5941006 18.5954183,48.6093053 C20.2484795,48.8592715 19.8902554,46.268685 19.9343492,45.8675835 C20.6136978,39.6667793 22.899581,33.5395662 23.136167,27.3053115" id="Fill-23" fill="#F9CE3D" mask="url(#mask-2)"></path>
                <path d="M13.4270172,14.2848696 C14.2760508,14.6546493 15.2424652,14.7939249 16.1489728,14.944452 C17.1035275,15.1028855 18.9058994,15.2181376 18.7620624,15.1542776 C18.9700635,14.7504392 18.9931748,14.3846128 18.1006555,13.9902014 C16.4269158,13.2503379 13.4209353,12.713914 12.4609069,12.6473172 C11.9317813,12.6108258 11.905325,12.9748277 11.9092783,13.4370523 C11.8694418,13.4461752 12.8553183,14.0358157 13.4270172,14.2848696" id="Fill-24" fill="#242441" mask="url(#mask-2)"></path>
                <path d="M23.136167,27.3053115 C23.3073726,22.7922354 22.1402554,18.2496621 19.5216921,15.7271929 C19.5177389,17.2160427 18.4582714,18.7185768 16.5932558,18.552845 C17.8628531,25.2298621 18.0857548,32.0063184 18.3506217,38.7748682 C18.4680024,41.7695972 18.4938505,44.7199284 18.3822476,47.7146574 C18.3716043,48.0014191 18.364306,48.2869645 18.3603528,48.5712934 C18.4388093,48.5840654 18.5175699,48.5974456 18.5954183,48.6093053 C20.2484795,48.8592715 19.8902554,46.268685 19.9343492,45.8675835 C20.6136978,39.6667793 22.899581,33.5395662 23.136167,27.3053115" id="Fill-25" fill="#F0BD39" mask="url(#mask-2)"></path>
            </g>
            <polyline id="Fill-27" fill="#3F3E5B" points="108.730437 159.572713 103.271929 162.39137 102.347479 160.655595 107.805987 157.837242 108.730437 159.572713"></polyline>
            <path d="M129.139478,147.903669 C128.170631,146.112853 126.382552,145.182322 125.146101,145.825787 C125.037539,145.882349 124.93962,145.952595 124.846567,146.028619 L103.694317,159.640526 C103.549263,159.734187 103.5,159.923334 103.581193,160.075686 L104.45273,161.712326 C104.532707,161.861941 104.712123,161.927625 104.869645,161.864374 L128.404784,152.417962 L128.47503,152.389681 L128.655055,152.317306 L128.652622,152.313049 L128.655055,152.312137 C129.89181,151.668671 130.10863,149.695094 129.139478,147.903669" id="Fill-28" fill="#89B6D7"></path>
            <path d="M129.223409,147.857143 C128.250912,146.059636 126.456447,145.12576 125.215435,145.771658 C125.106264,145.82822 125.008042,145.89877 124.914989,145.975402 L124.253277,146.401135 C125.424652,146.234491 126.85025,147.135221 127.679213,148.667556 C128.505136,150.194418 128.469557,151.849608 127.681342,152.710806 L128.485978,152.387552 L128.556528,152.359576 L128.73716,152.286897 L128.735032,152.282944 L128.737465,152.281727 C129.978173,151.635829 130.196209,149.654953 129.223409,147.857143" id="Fill-29" fill="#3F3E5B"></path>
            <path d="M115.585045,153.732565 C115.52301,153.565921 115.382822,153.429382 115.213137,153.370692 C115.179686,153.359136 115.144107,153.350318 115.108528,153.347885 C115.067475,153.34454 115.026118,153.348797 114.988411,153.364914 C114.92972,153.38985 114.885322,153.44185 114.859474,153.499628 C114.834234,153.554974 114.83393,153.615793 114.815076,153.671138 C114.76855,153.634647 114.75669,153.565009 114.716854,153.519699 C114.667286,153.463441 114.603426,153.419651 114.531356,153.397148 C114.45746,153.373733 114.37201,153.358224 114.306021,153.398669 C114.182863,153.474084 114.198067,153.674179 114.195026,153.797946 C114.191073,153.937221 114.201412,154.076801 114.223307,154.214252 C114.177693,154.171679 114.126301,154.135491 114.066698,154.112684 C114.039938,154.102649 114.011657,154.095047 113.983376,154.095351 C113.875726,154.097175 113.806089,154.206041 113.768685,154.30548 C113.640053,154.650324 113.664989,155.041391 113.767164,155.390492 C113.874814,155.759055 113.938978,156.138566 114.049669,156.506217 C114.102277,156.68168 114.125693,156.867482 114.205974,157.033822 C114.296898,157.222665 114.464455,157.361333 114.619847,157.497567 C115.166914,157.976821 115.733444,158.427186 116.37843,158.773246 C116.446547,158.810042 116.513448,158.841364 116.580045,158.869949 L116.857075,159.977463 L118.600453,159.609204 L118.288451,158.459724 L118.305785,158.439654 C118.465739,158.189384 118.505575,157.894411 118.432896,157.607346 C118.366299,157.345824 118.23341,157.082781 118.082579,156.858663 C118.007163,156.746148 117.926882,156.632112 117.828051,156.541492 C117.612752,156.343222 117.392283,156.150122 117.142012,155.992904 C117.031018,155.923267 116.919719,155.854541 116.819976,155.766354 C116.741823,155.696716 116.70077,155.621908 116.697729,155.520341 C116.689519,155.272199 116.589776,155.042303 116.542641,154.801764 C116.533822,154.758582 116.510407,154.717833 116.490641,154.677085 C116.365353,154.419516 116.182896,154.112988 115.952392,153.933572 C115.890053,153.885221 115.815549,153.847513 115.736485,153.835653 C115.692391,153.829267 115.65225,153.847209 115.619408,153.805852 L115.585045,153.732565" id="Fill-30" fill="#F3BCA9"></path>
            <path d="M105.71138,158.771726 C105.771287,158.838627 105.843053,158.903095 105.931849,158.919516 C106.020949,158.935937 106.127078,158.884545 106.139242,158.796054 C106.182423,158.900966 106.291593,158.976078 106.406237,158.980031 C106.520881,158.983984 106.634309,158.915867 106.683876,158.813995 C106.699081,158.783282 106.713069,158.74527 106.74652,158.735539 C106.786052,158.724287 106.821327,158.76017 106.851737,158.788147 C107.001656,158.927119 107.260137,158.914955 107.41188,158.779024 C107.563623,158.643094 107.605284,158.409549 107.533822,158.219489 C107.662758,158.28122 107.827882,158.218273 107.90938,158.102412 C107.990877,157.986856 108,157.833288 107.96959,157.695229 C107.939181,157.556866 107.872888,157.42945 107.812069,157.301426 C107.722057,157.111975 107.635086,156.908231 107.464488,156.783552 C107.293891,156.658873 107.00865,156.661001 106.907994,156.844675 C106.776017,156.786593 106.633396,156.735201 106.490776,156.754359 C106.347851,156.772909 106.208271,156.884816 106.207359,157.026828 C106.112786,156.908535 105.916948,156.9134 105.795006,157.003413 C105.673064,157.093121 105.611333,157.241823 105.573321,157.387485 C105.260711,157.341566 105.271962,157.79254 105.327004,157.978038 C105.411238,158.262062 105.509765,158.545783 105.71138,158.771726" id="Fill-31" fill="#F3BCA9"></path>
            <path d="M95.1699216,177.8911 C95.3496418,177.517671 94.88985,174.728207 97.0589607,173.803757 C99.5385525,172.747635 105.873463,173.247871 109.014766,172.616266 C110.675429,174.251994 111.845891,176.542438 112.535275,178.726145 C109.533856,179.453237 102.766523,180.71432 100.392148,182.169415 C100.159515,182.31234 98.4267806,182.21138 97.8240641,181.898162 C96.0077037,180.954859 95.3225774,179.540512 95.1699216,177.8911" id="Fill-32" fill="#F9CE3D"></path>
            <path d="M108.869104,175.310245 C109.386978,176.257805 109.838559,177.241553 110.234795,178.245979 C110.355825,178.552203 110.470469,178.861468 110.580551,179.172253 C111.323152,179.007433 111.991249,178.857515 112.535275,178.726145 C111.845891,176.542438 110.675429,174.251994 109.014766,172.616266 C108.517266,172.716313 107.939181,172.787775 107.3094,172.8416 C107.80325,173.67695 108.404142,174.45969 108.869104,175.310245" id="Fill-33" fill="#242441"></path>
            <path d="M109.468171,179.419178 C109.667962,179.37478 109.864407,179.330991 110.0569,179.288113 C110.000338,179.128767 109.945905,178.968813 109.886302,178.81038 C109.414347,177.55842 108.852683,176.341431 108.188539,175.180092 C107.739086,174.39431 107.176206,173.670868 106.728274,172.885694 C106.47922,172.902115 106.22378,172.916712 105.963475,172.930092 C107.505845,175.163063 108.533079,176.997365 109.468171,179.419178" id="Fill-34" fill="#242441"></path>
            <path d="M102.273584,159.725672 C102.31038,159.179518 101.944857,158.74162 102.055244,158.228308 C102.167151,157.709826 102.260812,157.266151 101.949115,156.782031 C101.629511,156.284836 100.999426,156.007805 100.416779,156.107852 C100.514394,155.534329 100.034532,154.978747 99.4722598,154.830653 C98.9096837,154.682254 98.3090958,154.856501 97.7930464,155.123801 C97.6181916,155.214421 97.4445533,155.319638 97.3262603,155.477159 C97.3977227,155.198608 97.2313826,154.89877 96.989627,154.743682 C96.7475672,154.588897 96.4471212,154.553926 96.1600554,154.563961 C95.0823422,154.600453 94.0955535,155.199216 93.3094675,155.936951 C93.0789634,156.153467 92.8426814,156.463036 92.9609745,156.756487 C92.0298351,156.514124 90.9995608,157.003109 90.4673942,157.805007 C89.9352277,158.606906 89.859508,159.65421 90.1140357,160.582004 C89.520746,160.652554 89.0679484,161.205703 88.9587782,161.793215 C88.8496081,162.380727 89.0217259,162.985876 89.2695635,163.529599 C89.616536,164.290141 90.188539,165.031525 91.0041222,165.215198 C90.7118867,165.630288 90.875794,166.210501 91.131538,166.649007 C91.5375051,167.345385 92.2846668,167.959049 93.0771388,167.813083 C93.2170226,167.787235 93.3489999,167.736451 93.4724625,167.668638 C94.001284,168.385086 94.8792066,168.854609 95.7738546,168.812035 C97.0464928,168.751216 98.1904987,167.663772 98.3154818,166.395695 C98.3346398,166.199858 98.3306866,165.994898 98.2464522,165.817002 C98.130592,165.573726 97.8867077,165.422591 97.7042506,165.224321 C97.1249493,164.594844 97.3375118,163.428335 98.102007,163.043655 C98.4623598,162.862718 98.8862684,162.844776 99.2520949,162.675395 C99.9582038,162.347581 100.306089,161.504629 100.281153,160.726754 C100.277504,160.611197 100.263819,160.502027 100.252568,160.391033 C100.273855,160.365184 100.300311,160.343898 100.319165,160.316225 C100.437154,160.790005 101.035309,161.039363 101.49358,160.870895 C101.952156,160.702122 102.241046,160.213137 102.273584,159.725672" id="Fill-35" fill="#834C4B"></path>
            <path d="M103.179788,161.34285 C103.41607,161.836397 103.446479,162.313522 103.247601,162.408704 C103.048723,162.503886 102.695972,162.181241 102.459386,161.687694 C102.223104,161.194452 102.192695,160.717327 102.391877,160.622145 C102.590451,160.526659 102.943506,160.849608 103.179788,161.34285" id="Fill-36" fill="#89B6D7"></path>
            <path d="M104.377619,160.725537 C104.614205,161.21878 104.644614,161.696209 104.445432,161.791391 C104.246858,161.886573 103.894107,161.563928 103.657521,161.070381 C103.421239,160.577139 103.39083,160.100014 103.589708,160.004528 C103.788586,159.909346 104.141337,160.231991 104.377619,160.725537" id="Fill-37" fill="#3F3E5B"></path>
            <path d="M50.6567779,205.578963 L109.323422,205.578963 C110.60275,205.578963 111.649446,204.532268 111.649446,203.252635 L111.649446,203.041898 C111.649446,201.762569 110.60275,200.71557 109.323422,200.71557 L50.6567779,200.71557 C49.3774497,200.71557 48.3304501,201.762569 48.3304501,203.041898 L48.3304501,203.252635 C48.3304501,204.532268 49.3774497,205.578963 50.6567779,205.578963" id="Fill-38" fill="#4D4C6C"></path>
            <path d="M102.987904,206.746993 C103.920868,205.910427 105.210839,205.40046 106.451243,205.201885 L104.980031,202.75696 L110.052946,202.75696 L108.594202,205.181207 C109.884782,205.359103 111.248344,205.873023 112.223273,206.746993 C114.853088,209.104338 115.040715,214.675362 107.605589,214.675362 C100.170158,214.675362 100.358089,209.104338 102.987904,206.746993" id="Fill-39" fill="#F0BD39"></path>
            <path d="M75.8659616,206.746993 C76.7989255,205.910427 78.0888971,205.40046 79.3296054,205.201885 L77.8580889,202.75696 L82.9310042,202.75696 L81.4722598,205.181207 C82.7631437,205.359103 84.1264022,205.873023 85.1013313,206.746993 C87.7311461,209.104338 87.9187728,214.675362 80.4836464,214.675362 C73.048216,214.675362 73.2361468,209.104338 75.8659616,206.746993" id="Fill-40" fill="#F0BD39"></path>
            <path d="M48.4323219,206.746993 C49.3655899,205.910427 50.6552575,205.40046 51.8959657,205.201885 L50.4244492,202.75696 L55.4976686,202.75696 L54.0386201,205.181207 C55.329504,205.359103 56.6927625,205.873023 57.6676916,206.746993 C60.2975064,209.104338 60.4851331,214.675362 53.0500068,214.675362 C45.6148804,214.675362 45.8025071,209.104338 48.4323219,206.746993" id="Fill-41" fill="#F0BD39"></path>
            <path d="M29.25,153.508143 C30.662522,154.212123 32.1185295,154.863799 33.5760576,155.444925 L33.3786998,155.939384 C31.9077916,155.35248 30.4384038,154.695026 29.0121976,153.984964 L29.25,153.508143 Z M21.1431274,148.607041 C22.4221516,149.52997 23.7516556,150.410326 25.0966685,151.223172 L24.8211583,151.678707 C23.4639816,150.858258 22.1220097,149.969692 20.8320381,149.038857 L21.1431274,148.607041 Z M13.9436748,142.452156 C15.0508853,143.569401 16.219827,144.654413 17.4167455,145.677085 L17.0709893,146.081835 C15.8628193,145.049736 14.6829301,143.95469 13.5653805,142.826497 L13.9436748,142.452156 Z M7.87697662,135.184282 C8.32095553,135.829876 8.78500473,136.468171 9.2566563,137.081835 C9.74260035,137.71557 10.2455737,138.344134 10.7518921,138.948371 L10.3437965,139.290478 C9.83261252,138.679855 9.32446952,138.045817 8.83365995,137.406001 C8.35744695,136.785039 7.88792404,136.13914 7.43847142,135.485944 L7.87697662,135.184282 Z M3.35781862,126.881268 C3.94897959,128.317205 4.63593053,129.753446 5.39829707,131.151068 L4.93059873,131.406204 C4.15941343,129.991857 3.46425193,128.537674 2.86518448,127.084099 L3.35781862,126.881268 Z M23.7930126,115.925936 C25.4050209,115.978848 26.9705028,115.821327 28.4453642,115.456717 L28.5727801,115.973679 C27.0504798,116.349845 25.4366468,116.512535 23.775071,116.458102 L23.7930126,115.925936 Z M35.96807,110.34062 L36.4132653,110.632856 C35.5122314,112.004325 34.3369036,113.194249 33.0146979,114.074909 L32.7194215,113.632146 C33.9829369,112.790411 35.1062644,111.652183 35.96807,110.34062 Z M14.8209893,113.417151 C16.1787742,114.175564 17.6381268,114.776152 19.1589066,115.202189 L19.0147655,115.714894 C17.4544533,115.277301 15.9555683,114.6609 14.5612921,113.882112 L14.8209893,113.417151 Z M0.314738478,117.861806 L0.842039465,117.787911 C1.05521016,119.309907 1.38180835,120.865353 1.81331937,122.411373 L1.30061495,122.554298 C0.862717935,120.985775 0.531254224,119.406609 0.314738478,117.861806 Z M37.5931545,101.442188 L38.109508,101.314772 C38.3345385,102.227362 38.4461414,103.156677 38.4406677,104.077477 C38.4373226,104.766252 38.3692053,105.464455 38.2384444,106.152622 L37.7157048,106.053487 C37.8403838,105.396946 37.9051561,104.730977 37.9088052,104.074436 C37.9133667,103.197729 37.8069334,102.312204 37.5931545,101.442188 Z M8.24827679,106.918942 C8.95773077,108.260914 9.90316259,109.510745 11.0584201,110.634072 L10.6877281,111.016016 C9.49202595,109.853764 8.51283957,108.559231 7.77753751,107.167996 L8.24827679,106.918942 Z M0.449452629,108.292844 L0.973712664,108.387113 C0.699114745,109.908197 0.550412218,111.486755 0.532470604,113.079909 L0,113.073523 C0.0182457089,111.45148 0.169685093,109.842817 0.449452629,108.292844 Z M32.7699013,93.4201581 C34.0747736,94.4820584 35.1865455,95.6631639 36.0738951,96.9312407 L35.6375186,97.2368563 C34.7787539,96.0089201 33.7007366,94.8640019 32.4338762,93.8328152 L32.7699013,93.4201581 Z M3.88542371,99.3582241 L4.33882957,99.6373834 C3.51686039,100.973578 2.8137924,102.393398 2.24817543,103.857008 L1.75189215,103.665124 C2.32876064,102.171104 3.04672929,100.722395 3.88542371,99.3582241 Z M5.95600757,97.7875726 L6.48786998,97.8042979 C6.43404514,99.4974997 6.53226787,101.03166 6.78892418,102.494966 L6.26466414,102.586498 C6.00162184,101.087309 5.90066225,99.5172658 5.95600757,97.7875726 Z M24.1481957,89.2695635 C25.683268,89.594033 27.2152994,90.1228544 28.7017164,90.8408231 L28.4703,91.3203811 C27.0221989,90.6206582 25.5312204,90.1061292 24.0381133,89.7907825 L24.1481957,89.2695635 Z M10.3897148,92.3400122 L10.6953305,92.7754764 C9.44306663,93.6546155 8.25739965,94.6991823 7.17117178,95.8802879 L6.77949723,95.5199351 C7.89126909,94.3108528 9.10612921,93.240742 10.3897148,92.3400122 Z M14.7206379,90.0392283 C16.2146574,89.4784768 17.7661508,89.1214691 19.3322408,88.9776321 L19.3815043,89.5082781 C17.8619408,89.6475537 16.3569739,89.9939181 14.9079605,90.5376402 L14.8279835,90.5677456 L14.6367077,90.0711583 L14.7206379,90.0392283 Z M7.4144479,88.3326463 L7.93140965,88.4609745 C7.60146641,89.7880457 7.31683336,91.124848 7.08602514,92.4336735 C7.04649277,92.6568793 7.00817678,92.8800851 6.97138127,93.1035951 L6.44590485,93.0178402 C6.48300446,92.7918976 6.52162454,92.566259 6.56146101,92.3409244 C6.79500608,91.0202392 7.08176781,89.6715772 7.4144479,88.3326463 Z M10.4262062,79.2575348 L10.9167117,79.4631031 C10.3091296,80.9115083 9.74929044,82.4067442 9.25209488,83.9068455 L8.74699284,83.7386809 C9.24814164,82.2258075 9.81315043,80.7181038 10.4262062,79.2575348 Z M14.8349777,70.772672 L15.2844303,71.0582173 C14.4551629,72.3630896 13.6605622,73.7458102 12.9240438,75.1674551 L12.4511758,74.9229626 C13.1952967,73.4873294 13.9971956,72.0903163 14.8349777,70.772672 Z M20.755102,63.2609136 L21.1343087,63.6352548 C20.0568996,64.7272604 19.0071631,65.9229626 18.0142925,67.1895189 L17.5955535,66.8610961 C18.6005879,65.579335 19.6637046,64.3675159 20.755102,63.2609136 L20.755102,63.2609136 Z" id="Fill-42" fill="#A4BDD6"></path>
            <path d="M38.1012975,157.030781 C38.8542371,157.259157 39.6266387,157.475368 40.3981281,157.673334 L40.2652385,158.189384 C39.4870591,157.988985 38.7067509,157.770949 37.9471212,157.540445 L38.1012975,157.030781" id="Fill-43" fill="#A4BDD6"></path>
            <polyline id="Fill-44" fill="#89A8CA" points="23.6324503 62.5198338 52.8739357 43.5820043 29.0125017 55.8756589 23.6324503 62.5198338"></polyline>
            <path d="M18.5355116,46.4110015 C18.5355116,46.4110015 46.0932221,44.683437 52.8739357,43.5820043 C52.8739357,43.5820043 37.5992364,61.3490674 33.8606906,67.5741992 L29.0125017,55.8756589 L26.7992972,52.7158062 L18.5355116,46.4110015" id="Fill-45" fill="#CFE6ED"></path>
            <polyline id="Fill-46" fill="#A4BDD6" points="23.6324503 62.5198338 29.0125017 55.8756589 52.8739357 43.5820043 26.7992972 52.7158062 23.6324503 62.5198338"></polyline>
            <g id="Group-49" transform="translate(9.235066, 166.362549)">
                <mask id="mask-4" fill="white">
                    <use xlink:href="#path-3"></use>
                </mask>
                <g id="Clip-48"></g>
                <path d="M8.43347074,12.0062846 L0.856027842,11.9862144 C0.856027842,11.9862144 -0.983443709,11.7316867 1.93830247,11.4835451 C4.93455197,11.2290174 4.93455197,11.2290174 4.93455197,11.2290174 C4.93455197,11.2290174 4.36954318,10.3672118 5.33534937,9.43363968 C6.44073523,8.667624 6.97928774,9.87214488 7.58230842,8.44441816 C8.08345722,7.2575348 9.4637451,3.8857278 13.0222665,3.7102649 C16.6866131,3.52932829 18.5373361,5.43539668 18.5373361,5.43539668 C18.5373361,5.43539668 18.076632,4.39843222 17.44381,4.04507366 C17.44381,4.04507366 18.7517232,3.5664279 19.9012029,2.44157994 C21.0613259,1.30578457 23.3608934,-0.407487498 27.1915799,0.223205839 C31.1378227,0.872753075 35.5268279,5.10849439 35.0390593,9.30227058 C35.0390593,9.30227058 35.5739627,9.22594269 35.5794364,7.708812 C35.5794364,7.708812 37.7223949,8.26226517 37.7263507,10.2644276 C37.7299973,12.266286 33.8178132,12.1814434 33.1484998,12.215198 C32.4822273,12.2489526 8.43347074,12.0062846 8.43347074,12.0062846" id="Fill-47" fill="url(#linearGradient-5)" mask="url(#mask-4)"></path>
            </g>
            <g id="Group-52" transform="translate(115.972462, 108.280376)">
                <mask id="mask-7" fill="white">
                    <use xlink:href="#path-6"></use>
                </mask>
                <g id="Clip-51"></g>
                <path d="M52.715198,10.4529666 C52.4746587,6.96043384 49.5434856,4.10133126 45.233241,4.10133126 C41.9976686,4.10133126 39.1458643,5.75135153 37.5286863,8.09896608 C35.8710637,3.85927152 33.2996351,0.215299365 28.2255034,0.215299365 C23.065617,0.215299365 18.7651034,3.84680362 18.6474186,8.10413569 C17.6396472,7.58930261 16.0997094,7.08085552 14.0245641,7.18333559 C10.125152,7.37552372 8.61258278,11.0702798 8.06308285,12.3711988 C7.40258819,13.9357683 6.8126436,12.6156913 5.60112853,13.4549939 C4.54287742,14.47797 5.16171104,15.4221854 5.16171104,15.4221854 C5.16171104,15.4221854 5.16171104,15.4221854 1.87869982,15.7010407 C-1.32281389,15.9729017 0.692728747,16.251757 0.692728747,16.251757 L8.99604676,16.2739559 C8.99604676,16.2739559 23.7402014,16.2447178 53.2285106,16.1862414 C54.5169618,16.1862414 56.2077308,16.2897689 57.0701446,15.075517 C57.2474321,14.8252467 57.3784971,14.5789296 57.4642519,14.3426477 L59.3663671,14.3426477 C60.4787471,14.3426477 61.7960873,13.5237194 62.3148736,12.480369 C62.8588999,11.3868428 62.3328152,10.4529666 61.1225166,10.4529666 L52.715198,10.4529666 Z" id="Fill-50" fill="url(#linearGradient-8)" mask="url(#mask-7)"></path>
            </g>
        </g>
    </g>
</svg>